<svg width="47" height="16" viewBox="0 0 47 16" fill="none" xmlns="http://www.w3.org/2000/svg">
<path d="M7.5625 4.1875C7.5625 5.38021 7.17188 6.29427 6.39062 6.92969C5.60938 7.5651 4.4974 7.88281 3.05469 7.88281H1.86719V12.1562H0V0.734375H3.28906C4.71615 0.734375 5.78385 1.02604 6.49219 1.60938C7.20573 2.19271 7.5625 3.05208 7.5625 4.1875ZM1.86719 6.3125H2.85938C3.81771 6.3125 4.52083 6.14583 4.96875 5.8125C5.41667 5.47917 5.64062 4.95833 5.64062 4.25C5.64062 3.59375 5.4401 3.10417 5.03906 2.78125C4.63802 2.45833 4.01302 2.29688 3.16406 2.29688H1.86719V6.3125ZM14.6121 12.1562L14.2449 10.9531H14.1824C13.7658 11.4792 13.3465 11.8385 12.9246 12.0312C12.5028 12.2188 11.9611 12.3125 11.2996 12.3125C10.4507 12.3125 9.78661 12.0833 9.30745 11.625C8.83349 11.1667 8.59651 10.5182 8.59651 9.67969C8.59651 8.78906 8.92724 8.11719 9.5887 7.66406C10.2502 7.21094 11.258 6.96354 12.6121 6.92188L14.1043 6.875V6.41406C14.1043 5.86198 13.9741 5.45052 13.7137 5.17969C13.4585 4.90365 13.0601 4.76562 12.5184 4.76562C12.0757 4.76562 11.6512 4.83073 11.2449 4.96094C10.8387 5.09115 10.4481 5.24479 10.0731 5.42188L9.47932 4.10938C9.94807 3.86458 10.4611 3.67969 11.0184 3.55469C11.5757 3.42448 12.1017 3.35938 12.5965 3.35938C13.6955 3.35938 14.5236 3.59896 15.0809 4.07812C15.6434 4.55729 15.9246 5.3099 15.9246 6.33594V12.1562H14.6121ZM11.8778 10.9062C12.5444 10.9062 13.0783 10.7214 13.4793 10.3516C13.8856 9.97656 14.0887 9.45312 14.0887 8.78125V8.03125L12.9793 8.07812C12.1147 8.10938 11.4845 8.25521 11.0887 8.51562C10.6981 8.77083 10.5028 9.16406 10.5028 9.69531C10.5028 10.0807 10.6173 10.3802 10.8465 10.5938C11.0757 10.8021 11.4194 10.9062 11.8778 10.9062ZM16.7321 3.51562H18.7321L20.4899 8.41406C20.7555 9.11198 20.9326 9.76823 21.0211 10.3828H21.0836C21.1305 10.0964 21.2165 9.75 21.3415 9.34375C21.4665 8.93229 22.1279 6.98958 23.3258 3.51562H25.3102L21.6149 13.3047C20.943 15.1016 19.8232 16 18.2555 16C17.8493 16 17.4534 15.9557 17.068 15.8672V14.4141C17.3441 14.4766 17.6592 14.5078 18.0133 14.5078C18.8987 14.5078 19.5211 13.9948 19.8805 12.9688L20.2008 12.1562L16.7321 3.51562ZM30.563 12.3125C29.4692 12.3125 28.6203 11.9193 28.0161 11.1328H27.9067C27.9796 11.862 28.0161 12.3047 28.0161 12.4609V16H26.1802V3.51562H27.6645C27.7062 3.67708 27.7921 4.0625 27.9223 4.67188H28.0161C28.589 3.79688 29.4484 3.35938 30.5942 3.35938C31.6723 3.35938 32.5109 3.75 33.1098 4.53125C33.714 5.3125 34.0161 6.40885 34.0161 7.82031C34.0161 9.23177 33.7088 10.3333 33.0942 11.125C32.4848 11.9167 31.6411 12.3125 30.563 12.3125ZM30.1177 4.85938C29.3885 4.85938 28.8546 5.07292 28.5161 5.5C28.1828 5.92708 28.0161 6.60938 28.0161 7.54688V7.82031C28.0161 8.8724 28.1828 9.63542 28.5161 10.1094C28.8494 10.5781 29.3937 10.8125 30.1489 10.8125C30.7843 10.8125 31.2739 10.5521 31.6177 10.0312C31.9614 9.51042 32.1333 8.76823 32.1333 7.80469C32.1333 6.83594 31.9614 6.10417 31.6177 5.60938C31.2791 5.10938 30.7791 4.85938 30.1177 4.85938ZM41.1126 12.1562L40.7454 10.9531H40.6829C40.2662 11.4792 39.847 11.8385 39.4251 12.0312C39.0032 12.2188 38.4616 12.3125 37.8001 12.3125C36.9511 12.3125 36.2871 12.0833 35.8079 11.625C35.334 11.1667 35.097 10.5182 35.097 9.67969C35.097 8.78906 35.4277 8.11719 36.0892 7.66406C36.7506 7.21094 37.7584 6.96354 39.1126 6.92188L40.6048 6.875V6.41406C40.6048 5.86198 40.4746 5.45052 40.2142 5.17969C39.959 4.90365 39.5605 4.76562 39.0188 4.76562C38.5761 4.76562 38.1517 4.83073 37.7454 4.96094C37.3392 5.09115 36.9485 5.24479 36.5735 5.42188L35.9798 4.10938C36.4485 3.86458 36.9616 3.67969 37.5188 3.55469C38.0761 3.42448 38.6022 3.35938 39.097 3.35938C40.1959 3.35938 41.0241 3.59896 41.5813 4.07812C42.1438 4.55729 42.4251 5.3099 42.4251 6.33594V12.1562H41.1126ZM38.3782 10.9062C39.0449 10.9062 39.5787 10.7214 39.9798 10.3516C40.386 9.97656 40.5892 9.45312 40.5892 8.78125V8.03125L39.4798 8.07812C38.6152 8.10938 37.985 8.25521 37.5892 8.51562C37.1985 8.77083 37.0032 9.16406 37.0032 9.69531C37.0032 10.0807 37.1178 10.3802 37.347 10.5938C37.5761 10.8021 37.9199 10.9062 38.3782 10.9062ZM46.381 12.1562H44.545V0H46.381V12.1562Z" fill="#252F40"/>
</svg>
