<svg width="8" height="8" viewBox="0 0 8 8" fill="none" xmlns="http://www.w3.org/2000/svg">
<path fill-rule="evenodd" clip-rule="evenodd" d="M4 0C4.3156 0 4.57143 0.25584 4.57143 0.571429V3.42857H7.42857C7.74417 3.42857 8 3.68441 8 4C8 4.3156 7.74417 4.57143 7.42857 4.57143H4.57143V7.42857C4.57143 7.74417 4.3156 8 4 8C3.68441 8 3.42857 7.74417 3.42857 7.42857V4.57143H0.571429C0.25584 4.57143 0 4.3156 0 4C0 3.68441 0.25584 3.42857 0.571429 3.42857H3.42857V0.571429C3.42857 0.25584 3.68441 0 4 0Z" fill="#82D616"/>
</svg>
